<?xml version="1.0" encoding="UTF-8"?>
<svg version="1.1" xmlns="http://www.w3.org/2000/svg" width="512" height="512">
<path d="M0 0 C1.01790619 0.00215515 2.03581238 0.0043103 3.08456421 0.00653076 C17.69363523 0.05620146 32.02575853 0.30709809 46.375 3.3125 C47.34985352 3.51117676 48.32470703 3.70985352 49.32910156 3.91455078 C97.7109774 14.03517194 141.69928269 35.9516877 177.375 70.3125 C178.3640332 71.26068604 178.3640332 71.26068604 179.37304688 72.22802734 C188.86130305 81.37247479 197.6012044 90.66984009 205.375 101.3125 C206.23306152 102.46355017 207.09113451 103.61459177 207.94921875 104.765625 C213.98677396 112.95525981 219.36957302 121.45788276 224.375 130.3125 C224.7771875 131.01971191 225.179375 131.72692383 225.59375 132.45556641 C238.6191741 155.59095836 247.36801461 180.76212409 252.6875 206.75 C252.83485596 207.46889404 252.98221191 208.18778809 253.1340332 208.9284668 C256.10789088 224.57475609 256.74800362 240.04818046 256.6875 255.9375 C256.68534485 256.95540619 256.6831897 257.97331238 256.68096924 259.02206421 C256.63129854 273.63113523 256.38040191 287.96325853 253.375 302.3125 C253.07698486 303.77478027 253.07698486 303.77478027 252.77294922 305.26660156 C242.65232806 353.6484774 220.7358123 397.63678269 186.375 433.3125 C185.74287598 433.97185547 185.11075195 434.63121094 184.45947266 435.31054688 C175.31502521 444.79880305 166.01765991 453.5387044 155.375 461.3125 C154.22394983 462.17056152 153.07290823 463.02863451 151.921875 463.88671875 C143.73224019 469.92427396 135.22961724 475.30707302 126.375 480.3125 C125.66778809 480.7146875 124.96057617 481.116875 124.23193359 481.53125 C101.09654164 494.5566741 75.92537591 503.30551461 49.9375 508.625 C49.21860596 508.77235596 48.49971191 508.91971191 47.7590332 509.0715332 C32.11274391 512.04539088 16.63931954 512.68550362 0.75 512.625 C-0.77685928 512.62176727 -0.77685928 512.62176727 -2.33456421 512.61846924 C-16.94363523 512.56879854 -31.27575853 512.31790191 -45.625 509.3125 C-47.08728027 509.01448486 -47.08728027 509.01448486 -48.57910156 508.71044922 C-96.9609774 498.58982806 -140.94928269 476.6733123 -176.625 442.3125 C-177.28435547 441.68037598 -177.94371094 441.04825195 -178.62304688 440.39697266 C-188.11130305 431.25252521 -196.8512044 421.95515991 -204.625 411.3125 C-205.48306152 410.16144983 -206.34113451 409.01040823 -207.19921875 407.859375 C-213.23677396 399.66974019 -218.61957302 391.16711724 -223.625 382.3125 C-224.0271875 381.60528809 -224.429375 380.89807617 -224.84375 380.16943359 C-237.8691741 357.03404164 -246.61801461 331.86287591 -251.9375 305.875 C-252.08485596 305.15610596 -252.23221191 304.43721191 -252.3840332 303.6965332 C-255.35789088 288.05024391 -255.99800362 272.57681954 -255.9375 256.6875 C-255.93534485 255.66959381 -255.9331897 254.65168762 -255.93096924 253.60293579 C-255.88129854 238.99386477 -255.63040191 224.66174147 -252.625 210.3125 C-252.42632324 209.33764648 -252.22764648 208.36279297 -252.02294922 207.35839844 C-241.90232806 158.9765226 -219.9858123 114.98821731 -185.625 79.3125 C-184.99287598 78.65314453 -184.36075195 77.99378906 -183.70947266 77.31445312 C-174.56502521 67.82619695 -165.26765991 59.0862956 -154.625 51.3125 C-153.47394983 50.45443848 -152.32290823 49.59636549 -151.171875 48.73828125 C-142.98224019 42.70072604 -134.47961724 37.31792698 -125.625 32.3125 C-124.91778809 31.9103125 -124.21057617 31.508125 -123.48193359 31.09375 C-100.34654164 18.0683259 -75.17537591 9.31948539 -49.1875 4 C-48.46860596 3.85264404 -47.74971191 3.70528809 -47.0090332 3.5534668 C-31.36274391 0.57960912 -15.88931954 -0.06050362 0 0 Z M29.375 109.3125 C23.84693686 125.71389144 18.55334537 142.16959836 13.4251709 158.69985962 C11.25028023 165.70969933 9.06508782 172.71633106 6.87890625 179.72265625 C6.54058588 180.80712949 6.54058588 180.80712949 6.19543076 181.91351128 C1.06973873 198.33789086 -4.1464029 214.73314612 -9.375 231.125 C-11.14512392 236.67559237 -12.91475882 242.22634047 -14.68359375 247.77734375 C-14.89740692 248.44831966 -15.11122009 249.11929558 -15.33151245 249.8106041 C-19.71578043 263.57228493 -24.04683751 277.3503973 -28.35958862 291.13464355 C-32.83355933 305.43360028 -37.329691 319.72537474 -41.84375 334.01171875 C-42.11510962 334.87058937 -42.38646923 335.72945999 -42.66605186 336.61435699 C-45.39447149 345.24960901 -48.12401848 353.88450376 -50.85537148 362.51882839 C-51.87695264 365.74869289 -52.89797137 368.97873502 -53.91888428 372.20881081 C-54.39564749 373.71673011 -54.87267985 375.22456435 -55.3500061 376.73230553 C-56.78236107 381.25675846 -58.20736519 385.78341181 -59.625 390.3125 C-59.94657074 391.33358856 -60.26814148 392.35467712 -60.59945679 393.40670776 C-60.87560822 394.29979645 -61.15175964 395.19288513 -61.4362793 396.11303711 C-61.66977585 396.86370956 -61.9032724 397.61438202 -62.1438446 398.38780212 C-62.74626329 400.46691763 -62.74626329 400.46691763 -62.625 403.3125 C-51.735 403.3125 -40.845 403.3125 -29.625 403.3125 C-24.09733525 386.91229057 -18.80407226 370.45778165 -13.67626953 353.92871094 C-11.49576972 346.90076479 -9.30505076 339.87600081 -7.11328125 332.8515625 C-6.88724842 332.12700111 -6.66121559 331.40243973 -6.42833328 330.65592194 C-1.60703279 315.20658124 3.29830496 299.78443197 8.21936417 284.36663055 C15.76279621 260.73278773 23.22473379 237.07531017 30.59661865 213.38739014 C35.41710196 197.89890136 40.28213377 182.4259775 45.2265625 166.9765625 C45.71599518 165.44595357 46.20539558 163.91533433 46.69476318 162.38470459 C48.81639968 155.75074687 50.94072685 149.11770977 53.07811928 142.48880959 C53.94807523 139.78723872 54.81366557 137.08428233 55.67826462 134.38099289 C56.26736265 132.54422131 56.86216525 130.70928234 57.45718384 128.87442017 C57.8137204 127.75779999 58.17025696 126.64117981 58.53759766 125.49072266 C59.00004379 124.05486313 59.00004379 124.05486313 59.47183228 122.58999634 C60.67539536 118.22239828 61.48651648 113.75491758 62.375 109.3125 C51.485 109.3125 40.595 109.3125 29.375 109.3125 Z M-101.625 176.3125 C-106.85285639 181.51705007 -112.0779073 186.72439988 -117.29952335 191.93521118 C-119.724955 194.35545364 -122.15129528 196.77476948 -124.57983398 199.19189453 C-127.38027615 201.97925932 -130.17654822 204.77078726 -132.97265625 207.5625 C-133.8333522 208.41803467 -134.69404816 209.27356934 -135.58082581 210.1550293 C-139.87117816 214.44498662 -143.98811693 218.80490551 -147.94313049 223.40478516 C-150.84994198 226.70193002 -153.97034314 229.78057989 -157.08984375 232.875 C-157.76801651 233.55175781 -158.44618927 234.22851562 -159.14491272 234.92578125 C-161.28174305 237.05707675 -163.42204823 239.18484218 -165.5625 241.3125 C-167.02432123 242.76929779 -168.48591187 244.22632701 -169.94726562 245.68359375 C-173.503854 249.22923973 -177.06356016 252.77172739 -180.625 256.3125 C-175.69158986 262.31864309 -170.2720815 267.78387257 -164.75958443 273.25308037 C-163.0954951 274.90424541 -161.43469042 276.55865443 -159.77464294 278.21388245 C-155.65254281 282.32270996 -151.52499728 286.42605297 -147.39758301 290.52954102 C-143.9016567 294.00561905 -140.40786662 297.48381862 -136.91679192 300.96476936 C-135.29323992 302.58191528 -133.66666925 304.19598027 -132.03993225 305.80992126 C-127.19250023 310.63361216 -122.45648851 315.50015131 -118.0091095 320.7013092 C-116.37626816 322.60203956 -114.65894033 324.39316862 -112.87890625 326.15625 C-112.26982422 326.76210938 -111.66074219 327.36796875 -111.03320312 327.9921875 C-110.42412109 328.59289062 -109.81503906 329.19359375 -109.1875 329.8125 C-108.55134766 330.44414062 -107.91519531 331.07578125 -107.25976562 331.7265625 C-105.71717194 333.25755774 -104.17142686 334.78537667 -102.625 336.3125 C-98.95747995 334.7733199 -96.63919427 332.55764548 -93.859375 329.7421875 C-92.52519531 328.39833984 -92.52519531 328.39833984 -91.1640625 327.02734375 C-90.24367188 326.09019531 -89.32328125 325.15304687 -88.375 324.1875 C-87.43015144 323.23261363 -86.48484367 322.27818141 -85.5390625 321.32421875 C-83.22981662 318.99140913 -80.92536797 316.65405914 -78.625 314.3125 C-84.0585882 307.70177013 -90.08946043 301.72035804 -96.1484375 295.69140625 C-97.26109385 294.58061831 -98.37352716 293.4696069 -99.48574829 292.35838318 C-102.3933127 289.45461066 -105.30386905 286.55385564 -108.21508789 283.65374756 C-111.19340429 280.68571737 -114.16884106 277.71480338 -117.14453125 274.74414062 C-122.96856123 268.93078917 -128.7957595 263.12062666 -134.625 257.3125 C-133.04100411 253.41854884 -130.38303057 250.80097765 -127.44091797 247.90136719 C-126.91393311 247.37409027 -126.38694824 246.84681335 -125.84399414 246.30355835 C-124.10642524 244.56737928 -122.36188686 242.838386 -120.6171875 241.109375 C-119.40891678 239.90483563 -118.20108778 238.69985303 -116.99368286 237.4944458 C-113.81862923 234.32701894 -110.63761478 231.16564487 -107.45532227 228.00549316 C-104.20747924 224.77812911 -100.96530867 221.54507772 -97.72265625 218.3125 C-91.36231018 211.97358697 -84.99565247 205.64105376 -78.625 199.3125 C-82.93171216 190.11927941 -93.22712227 181.91108515 -101.625 176.3125 Z M99.80859375 177.81640625 C98.82052734 178.83541016 98.82052734 178.83541016 97.8125 179.875 C94.43034496 183.30555797 90.92465888 186.4978229 87.2734375 189.63671875 C84.51097706 192.07518691 81.94758941 194.67559585 79.375 197.3125 C80.95899589 201.20645116 83.61696943 203.82402235 86.55908203 206.72363281 C87.08606689 207.25090973 87.61305176 207.77818665 88.15600586 208.32144165 C89.89357476 210.05762072 91.63811314 211.786614 93.3828125 213.515625 C94.59108322 214.72016437 95.79891222 215.92514697 97.00631714 217.1305542 C100.18137077 220.29798106 103.36238522 223.45935513 106.54467773 226.61950684 C109.79252076 229.84687089 113.03469133 233.07992228 116.27734375 236.3125 C122.63768982 242.65141303 129.00434753 248.98394624 135.375 255.3125 C133.79100411 259.20645116 131.13303057 261.82402235 128.19091797 264.72363281 C127.66393311 265.25090973 127.13694824 265.77818665 126.59399414 266.32144165 C124.85642524 268.05762072 123.11188686 269.786614 121.3671875 271.515625 C120.15891678 272.72016437 118.95108778 273.92514697 117.74368286 275.1305542 C114.56862923 278.29798106 111.38761478 281.45935513 108.20532227 284.61950684 C104.95747924 287.84687089 101.71530867 291.07992228 98.47265625 294.3125 C92.11231018 300.65141303 85.74565247 306.98394624 79.375 313.3125 C82.6251087 317.1613174 85.88150293 320.94599881 89.4609375 324.49609375 C90.51474609 325.54506836 90.51474609 325.54506836 91.58984375 326.61523438 C92.30269531 327.31970703 93.01554687 328.02417969 93.75 328.75 C94.48605469 329.48154297 95.22210938 330.21308594 95.98046875 330.96679688 C97.77636074 332.75102723 99.57455985 334.53286124 101.375 336.3125 C104.71078513 334.86094106 106.89998603 333.03324062 109.45703125 330.4609375 C110.22466797 329.69136719 110.99230469 328.92179688 111.78320312 328.12890625 C112.57662109 327.32324219 113.37003906 326.51757812 114.1875 325.6875 C114.96931641 324.90503906 115.75113281 324.12257813 116.55664062 323.31640625 C119.95993845 319.88751972 123.27497304 316.43988892 126.41503906 312.76806641 C131.40450328 307.03543732 136.83110331 301.73247212 142.21484375 296.375 C143.34849143 295.24322136 144.48191559 294.1112188 145.61512756 292.97900391 C148.57363851 290.02427989 151.53514181 287.07257347 154.49731445 284.121521 C157.52934725 281.09978529 160.55849067 278.07515606 163.58789062 275.05078125 C169.51412967 269.13521195 175.44353842 263.22283271 181.375 257.3125 C177.14625467 252.25823728 172.72326562 247.53813967 168.03515625 242.91015625 C167.34997421 242.22876083 166.66479218 241.54736542 165.95884705 240.84532166 C163.05816355 237.96082015 160.15152617 235.08234634 157.24536133 232.20336914 C155.11068003 230.08691453 152.97911672 227.96735374 150.84765625 225.84765625 C150.20264664 225.21094498 149.55763702 224.5742337 148.89308167 223.91822815 C145.78019108 220.8219018 142.78284446 217.6793301 139.91333008 214.35522461 C136.22062677 210.07931816 132.28846011 206.08165525 128.2890625 202.09375 C127.54667328 201.35040405 126.80428406 200.60705811 126.03939819 199.84118652 C124.48598906 198.28710213 122.93133746 196.73425875 121.37548828 195.18261719 C118.98222329 192.79476349 116.5944126 190.40154717 114.20703125 188.0078125 C112.69302934 186.49447045 111.17871778 184.98143811 109.6640625 183.46875 C108.94747467 182.75013794 108.23088684 182.03152588 107.49258423 181.2911377 C106.83454803 180.63625366 106.17651184 179.98136963 105.49853516 179.30664062 C104.6275267 178.43682556 104.6275267 178.43682556 103.73892212 177.54943848 C101.76157356 175.75618469 101.76604336 175.93705937 99.80859375 177.81640625 Z " fill="#75BE89" transform="translate(255.625,-0.3125)"/>
</svg>
